<?xml version="1.0" encoding="UTF-8" standalone="no"?>
<svg
   xmlns:dc="http://purl.org/dc/elements/1.1/"
   xmlns:cc="http://creativecommons.org/ns#"
   xmlns:rdf="http://www.w3.org/1999/02/22-rdf-syntax-ns#"
   xmlns:svg="http://www.w3.org/2000/svg"
   xmlns="http://www.w3.org/2000/svg"
   xmlns:sodipodi="http://sodipodi.sourceforge.net/DTD/sodipodi-0.dtd"
   xmlns:inkscape="http://www.inkscape.org/namespaces/inkscape"
   width="1920"
   height="1080"
   viewBox="0 0 508 285.75"
   version="1.1"
   id="svg8"
   inkscape:version="1.0.1 (3bc2e813f5, 2020-09-07)"
   sodipodi:docname="NullaDev.svg"
   inkscape:export-filename="C:\Users\Wille\Pictures\NullaDev Icons\NullaDev.png"
   inkscape:export-xdpi="96"
   inkscape:export-ydpi="96">
  <defs
     id="defs2" />
  <sodipodi:namedview
     id="base"
     pagecolor="#ffffff"
     bordercolor="#666666"
     borderopacity="1.0"
     inkscape:pageopacity="0.0"
     inkscape:pageshadow="2"
     inkscape:zoom="0.35"
     inkscape:cx="933.96331"
     inkscape:cy="471.35785"
     inkscape:document-units="px"
     inkscape:current-layer="layer1"
     inkscape:document-rotation="0"
     showgrid="false"
     units="px"
     inkscape:window-width="1920"
     inkscape:window-height="1001"
     inkscape:window-x="-9"
     inkscape:window-y="-9"
     inkscape:window-maximized="1"
     inkscape:snap-midpoints="false"
     inkscape:snap-page="false"
     inkscape:snap-bbox="false"
     inkscape:bbox-paths="false"
     inkscape:bbox-nodes="false"
     inkscape:snap-bbox-edge-midpoints="true" />
  <metadata
     id="metadata5">
    <rdf:RDF>
      <cc:Work
         rdf:about="">
        <dc:format>image/svg+xml</dc:format>
        <dc:type
           rdf:resource="http://purl.org/dc/dcmitype/StillImage" />
        <dc:title></dc:title>
      </cc:Work>
    </rdf:RDF>
  </metadata>
  <g
     inkscape:label="图层 1"
     inkscape:groupmode="layer"
     id="layer1">
    <g
       id="g1002"
       transform="translate(-253.99999,-142.875)">
      <g
         id="g969">
        <path
           id="rect833-3"
           style="fill:#ff7d00;fill-opacity:1;stroke-width:0.0760981"
           d="m 314.52345,252.67707 v 66.14583 h 13.22917 v -39.6875 l 19.84375,39.6875 h 13.22916 v -66.14583 h -13.22916 v 39.6875 l -19.84375,-39.6875 z" />
        <path
           id="rect861-8"
           style="opacity:0.5;fill:#000000;stroke-width:0.0760981"
           d="m 327.75262,252.67707 v 26.45833 l 19.84375,39.6875 v -26.45833 z" />
      </g>
      <g
         id="g965">
        <path
           id="rect833-4"
           style="fill:#ff7d00;fill-opacity:1;stroke:none;stroke-width:0.123478"
           d="m 367.44012,272.52084 v 33.07292 l 13.22917,13.22917 h 19.84375 l 13.22917,-13.22917 v -33.07292 h -13.22917 v 33.07292 h -19.84375 v -33.07292 z" />
        <rect
           style="opacity:0.5;fill:#000000;fill-opacity:1;stroke:none;stroke-width:0.229178;stroke-miterlimit:4;stroke-dasharray:none"
           id="rect871"
           width="19.84375"
           height="13.229167"
           x="380.66928"
           y="305.59375" />
      </g>
      <g
         id="g961">
        <path
           id="rect833-93"
           style="fill:#ff7d00;fill-opacity:1;stroke-width:0.0668803"
           d="m 426.97136,252.67711 -16.53646,13.22916 h 16.53646 v 52.91667 h 13.22916 l 16.53646,-13.22916 h -16.53646 v -52.91667 z" />
        <path
           id="path853"
           style="opacity:0.5;fill:#000000;stroke-width:0.197864"
           d="M 426.97136,265.90627 V 252.67711 L 410.4349,265.90627 Z" />
        <path
           id="path872"
           style="opacity:0.5;fill:#000000;stroke-width:0.197864"
           d="m 440.20052,305.59378 v 13.22916 l 16.53646,-13.22916 z" />
      </g>
      <g
         id="g951">
        <path
           id="rect833"
           style="fill:#ff7d00;fill-opacity:1;stroke-width:0.599793"
           d="m 508.99218,272.52082 -9.26041,6.61458 h 9.26041 27.78126 v 6.61458 h -27.78126 l -9.26041,6.61459 v 19.84375 l 9.26041,6.61458 h 27.78126 l 9.26041,-6.61458 V 279.1354 l -9.26041,-6.61458 z m 0,19.84375 h 27.78126 v 19.84375 h -27.78126 z" />
        <rect
           style="opacity:0.5;fill:#000000;stroke-width:0.715002"
           id="rect859"
           width="27.78125"
           height="6.6145835"
           x="508.99219"
           y="312.20831" />
        <rect
           style="opacity:0.5;fill:#000000;stroke-width:0.715002"
           id="rect861"
           width="27.78125"
           height="6.6145835"
           x="508.99219"
           y="285.74997" />
      </g>
      <g
         id="g946">
        <path
           id="rect833-9"
           style="fill:#ff7d00;fill-opacity:1;stroke-width:0.829207"
           d="m 552.64841,252.67706 v 66.14584 h 13.22917 19.84375 l 13.22917,-13.22917 v -39.6875 l -13.22917,-13.22917 h -19.84375 z m 13.22917,13.22917 h 19.84375 v 39.6875 h -19.84375 z" />
        <rect
           style="opacity:0.5;fill:#000000;stroke-width:0.633231"
           id="rect859-3"
           width="19.84375"
           height="13.229167"
           x="565.87756"
           y="252.67706" />
        <rect
           style="opacity:0.5;fill:#000000;stroke-width:0.633231"
           id="rect861-2"
           width="19.84375"
           height="13.229167"
           x="565.87756"
           y="305.59372" />
      </g>
      <g
         id="g941">
        <path
           id="rect1456"
           style="fill:#ff7d00;fill-opacity:1"
           d="m 614.8255,272.52082 -9.26042,9.26042 v 27.78124 l 9.26042,9.26042 h 27.78124 l 9.26042,-9.26042 h -9.26042 -27.78124 v -27.78124 h 27.78124 v 9.26041 h 9.26042 v -9.26041 l -9.26042,-9.26042 z" />
        <rect
           style="opacity:0.5;fill:#000000"
           id="rect1493"
           width="9.260417"
           height="27.78125"
           x="605.56506"
           y="281.78125" />
        <path
           id="rect1462"
           style="fill:#ff7d00;fill-opacity:1"
           d="m 605.56508,291.04165 v 9.26042 h 9.26042 27.78124 l 9.26042,-9.26042 H 614.8255 Z" />
        <rect
           style="opacity:0.5;fill:#000000"
           id="rect1495"
           width="9.260417"
           height="9.260417"
           x="642.60675"
           y="281.78125" />
      </g>
      <g
         id="g935">
        <rect
           style="fill:#ff7d00;fill-opacity:1;stroke-width:0.52868"
           id="rect865"
           width="9.2604141"
           height="49.86887"
           x="-810.48486"
           y="293.51392"
           transform="matrix(-1,0,-0.37139069,0.92847669,0,0)" />
        <rect
           style="opacity:0.5;fill:#000000;stroke-width:0.52868"
           id="rect877"
           width="9.2604141"
           height="49.86887"
           x="-810.48486"
           y="293.51389"
           transform="matrix(-1,0,-0.37139069,0.92847669,0,0)" />
        <rect
           style="fill:#ff7d00;fill-opacity:1;stroke-width:0.52868"
           id="rect833-8"
           width="9.2604141"
           height="49.86887"
           x="546.16614"
           y="293.51389"
           transform="matrix(1,0,0.37139069,0.92847669,0,0)" />
      </g>
      <g
         id="g956">
        <path
           id="path2145"
           style="fill:#ff7d00;fill-opacity:1;stroke-width:0.0668803"
           d="m 463.35156,252.67705 -16.53646,13.22916 h 16.53646 v 52.91667 h 13.22916 l 16.53646,-13.22916 h -16.53646 v -52.91667 z" />
        <path
           id="path2147"
           style="opacity:0.5;fill:#000000;stroke-width:0.197864"
           d="M 463.35156,265.90621 V 252.67705 L 446.8151,265.90621 Z" />
        <path
           id="path2149"
           style="opacity:0.5;fill:#000000;stroke-width:0.197864"
           d="m 476.58072,305.59372 v 13.22916 l 16.53646,-13.22916 z" />
      </g>
    </g>
  </g>
</svg>
